<svg width="554" height="84" viewBox="0 0 554 84" fill="none" xmlns="http://www.w3.org/2000/svg">
<path d="M201.102 4.8H206.646V30H201.102V4.8ZM228.844 4.8C228.94 5.376 228.988 5.904 228.988 6.384C228.988 7.2 228.856 7.8 228.592 8.184C228.328 8.568 227.908 8.76 227.332 8.76H222.508V30H217.036V8.76H210.7V4.8H228.844ZM234.575 0.335998C235.391 0.335998 236.051 0.599998 236.555 1.128C237.059 1.632 237.311 2.34 237.311 3.252V3.936C237.311 5.04 237.155 6 236.843 6.816C236.555 7.632 236.063 8.568 235.367 9.624C234.959 10.224 234.563 10.68 234.179 10.992C233.819 11.28 233.423 11.424 232.991 11.424C232.319 11.424 231.743 11.208 231.263 10.776C232.247 9.696 232.931 8.892 233.315 8.364C233.723 7.812 233.987 7.188 234.107 6.492H233.747C232.955 6.492 232.331 6.24 231.875 5.736C231.419 5.232 231.191 4.572 231.191 3.756V3.072C231.191 2.256 231.431 1.596 231.911 1.092C232.391 0.587998 233.027 0.335998 233.819 0.335998H234.575ZM250.097 30.36C247.145 30.36 244.829 29.856 243.149 28.848C241.469 27.84 240.629 26.46 240.629 24.708C240.629 23.868 240.977 23.208 241.673 22.728C242.393 22.248 243.401 21.996 244.697 21.972C244.841 23.388 245.381 24.48 246.317 25.248C247.277 26.016 248.561 26.4 250.169 26.4C253.121 26.4 254.597 25.308 254.597 23.124C254.597 22.26 254.189 21.552 253.373 21C252.581 20.448 251.189 19.884 249.197 19.308C246.365 18.516 244.289 17.508 242.969 16.284C241.649 15.036 240.989 13.44 240.989 11.496C240.989 9.312 241.829 7.596 243.509 6.348C245.213 5.076 247.529 4.44 250.457 4.44C252.809 4.44 254.825 5.004 256.505 6.132C258.185 7.236 259.337 8.784 259.961 10.776C259.553 11.184 258.989 11.544 258.269 11.856C257.549 12.168 256.913 12.324 256.361 12.324C255.929 12.324 255.593 12.24 255.353 12.072C255.113 11.88 254.861 11.532 254.597 11.028C254.117 10.092 253.565 9.42 252.941 9.012C252.317 8.604 251.489 8.4 250.457 8.4C247.889 8.4 246.605 9.252 246.605 10.956C246.605 11.628 246.737 12.18 247.001 12.612C247.265 13.02 247.721 13.404 248.369 13.764C249.017 14.1 250.001 14.484 251.321 14.916C253.721 15.708 255.557 16.44 256.829 17.112C258.101 17.76 258.989 18.468 259.493 19.236C260.021 20.004 260.285 20.952 260.285 22.08C260.285 23.712 259.853 25.152 258.989 26.4C258.149 27.648 256.961 28.62 255.425 29.316C253.889 30.012 252.113 30.36 250.097 30.36Z" fill="#4B89DC"/>
<path d="M270.523 33.672H295.147V35.832H270.523V33.672ZM295.133 33.672H319.757V35.832H295.133V33.672ZM319.742 33.672H344.366V35.832H319.742V33.672ZM349.752 30C348.672 30 348.132 29.46 348.132 28.38V28.056C348.132 26.976 348.672 26.436 349.752 26.436H350.04C351.12 26.436 351.66 26.976 351.66 28.056V28.38C351.66 29.46 351.12 30 350.04 30H349.752ZM2.88917 53.96V62.852H13.5812V65.012H2.88917V77H0.297172V51.8H15.1292V53.96H2.88917ZM20.251 57.2H22.699V77H20.251V57.2ZM21.331 53.564C20.251 53.564 19.711 53.024 19.711 51.944V51.62C19.711 50.54 20.251 50 21.331 50H21.619C22.699 50 23.239 50.54 23.239 51.62V51.944C23.239 53.024 22.699 53.564 21.619 53.564H21.331ZM30.2621 48.524H32.7101V77H30.2621V48.524ZM39.8949 48.524H42.3429V77H39.8949V48.524ZM59.169 57.2H61.617V77H59.169V57.2ZM60.249 53.564C59.169 53.564 58.629 53.024 58.629 51.944V51.62C58.629 50.54 59.169 50 60.249 50H60.537C61.617 50 62.157 50.54 62.157 51.62V51.944C62.157 53.024 61.617 53.564 60.537 53.564H60.249ZM84.3001 72.392C84.3001 73.856 84.3121 74.852 84.3361 75.38C84.3841 75.884 84.4801 76.34 84.6241 76.748C84.0481 77.036 83.4241 77.18 82.7521 77.18C82.3921 77.18 82.1521 76.928 82.0321 76.424C81.9121 75.896 81.8521 74.864 81.8521 73.328V63.572C81.8521 61.892 81.5401 60.68 80.9161 59.936C80.2921 59.168 79.2841 58.784 77.8921 58.784C75.7321 58.784 73.5241 59.852 71.2681 61.988V77H68.8201V63.932C68.8201 60.38 68.6761 58.268 68.3881 57.596C69.1561 57.236 69.7681 57.056 70.2241 57.056C70.9201 57.056 71.2681 57.752 71.2681 59.144V59.468C72.3721 58.556 73.4761 57.896 74.5801 57.488C75.7081 57.056 76.8961 56.84 78.1441 56.84C80.2081 56.84 81.7441 57.404 82.7521 58.532C83.7841 59.636 84.3001 61.328 84.3001 63.608V72.392ZM109.146 74.588C109.314 74.708 109.446 74.888 109.542 75.128C109.662 75.344 109.722 75.572 109.722 75.812C109.722 76.268 109.53 76.592 109.146 76.784C108.378 77.168 107.382 77.36 106.158 77.36C104.598 77.36 103.35 76.94 102.414 76.1C101.478 75.236 101.01 74.084 101.01 72.644V59.144H97.266V57.2H101.01V51.8H103.458V57.2H108.642V59.144H103.458V72.176C103.458 74.192 104.322 75.2 106.05 75.2C107.154 75.2 108.186 74.996 109.146 74.588ZM123.007 56.84C125.071 56.84 126.703 57.44 127.903 58.64C129.103 59.816 129.703 61.424 129.703 63.464V77H127.255V63.716C127.255 62.156 126.871 60.956 126.103 60.116C125.335 59.276 124.231 58.856 122.791 58.856C121.687 58.856 120.523 59.108 119.299 59.612C118.075 60.092 116.983 60.74 116.023 61.556V77H113.575V48.524H116.023V59.216C117.079 58.448 118.207 57.86 119.407 57.452C120.607 57.044 121.807 56.84 123.007 56.84ZM151.695 65.696C151.695 66.248 151.671 66.8 151.623 67.352H137.295C137.343 69.848 137.895 71.792 138.951 73.184C140.031 74.576 141.519 75.272 143.415 75.272C144.711 75.272 145.803 75.02 146.691 74.516C147.603 74.012 148.359 73.208 148.959 72.104C149.127 71.792 149.379 71.636 149.715 71.636C150.099 71.636 150.627 71.864 151.299 72.32C150.771 73.88 149.799 75.116 148.383 76.028C146.967 76.916 145.311 77.36 143.415 77.36C141.663 77.36 140.127 76.952 138.807 76.136C137.511 75.296 136.515 74.108 135.819 72.572C135.123 71.012 134.775 69.176 134.775 67.064C134.775 63.872 135.567 61.376 137.151 59.576C138.735 57.752 140.907 56.84 143.667 56.84C146.187 56.84 148.155 57.62 149.571 59.18C150.987 60.74 151.695 62.912 151.695 65.696ZM149.175 65.408C149.175 61.088 147.303 58.928 143.559 58.928C141.735 58.928 140.295 59.48 139.239 60.584C138.183 61.688 137.559 63.296 137.367 65.408H149.175ZM174.568 56.84C177.232 56.84 179.284 57.704 180.724 59.432C182.188 61.16 182.92 63.608 182.92 66.776C182.92 70.088 182.164 72.68 180.652 74.552C179.14 76.424 177.052 77.36 174.388 77.36C171.844 77.36 169.852 76.604 168.412 75.092C168.196 76.364 167.776 77 167.152 77C166.432 77 165.832 76.856 165.352 76.568C165.808 75.56 166.036 74.12 166.036 72.248V48.524H168.556V58.676C170.308 57.452 172.312 56.84 174.568 56.84ZM174.388 75.272C176.308 75.272 177.784 74.54 178.816 73.076C179.872 71.588 180.4 69.488 180.4 66.776C180.4 64.232 179.896 62.276 178.888 60.908C177.88 59.54 176.44 58.856 174.568 58.856C172.36 58.856 170.356 59.54 168.556 60.908V72.608C169.972 74.384 171.916 75.272 174.388 75.272ZM187.973 48.524H190.421V77H187.973V48.524ZM211.142 72.068C211.142 73.172 211.226 74.048 211.394 74.696C211.586 75.32 211.91 75.884 212.366 76.388C212.126 76.628 211.838 76.82 211.502 76.964C211.19 77.108 210.89 77.18 210.602 77.18C210.122 77.18 209.714 76.904 209.378 76.352C209.066 75.8 208.862 75.044 208.766 74.084C208.022 75.092 207.026 75.896 205.778 76.496C204.53 77.072 203.222 77.36 201.854 77.36C200.03 77.36 198.566 76.892 197.462 75.956C196.358 74.996 195.806 73.748 195.806 72.212C195.806 69.956 196.898 68.192 199.082 66.92C201.29 65.648 204.494 64.916 208.694 64.724V63.572C208.694 61.988 208.286 60.812 207.47 60.044C206.678 59.252 205.466 58.856 203.834 58.856C202.778 58.856 201.794 59.084 200.882 59.54C199.994 59.972 199.034 60.704 198.002 61.736C197.858 61.88 197.678 61.952 197.462 61.952C197.222 61.952 196.958 61.856 196.67 61.664C196.382 61.448 196.106 61.148 195.842 60.764C196.922 59.492 198.146 58.52 199.514 57.848C200.906 57.176 202.382 56.84 203.942 56.84C206.174 56.84 207.926 57.44 209.198 58.64C210.494 59.84 211.142 61.484 211.142 63.572V72.068ZM202.034 75.344C203.33 75.344 204.554 74.984 205.706 74.264C206.858 73.544 207.854 72.524 208.694 71.204V66.74C201.782 67.028 198.326 68.84 198.326 72.176C198.326 74.288 199.562 75.344 202.034 75.344ZM232.8 72.392C232.8 73.856 232.812 74.852 232.836 75.38C232.884 75.884 232.98 76.34 233.124 76.748C232.548 77.036 231.924 77.18 231.252 77.18C230.892 77.18 230.652 76.928 230.532 76.424C230.412 75.896 230.352 74.864 230.352 73.328V63.572C230.352 61.892 230.04 60.68 229.416 59.936C228.792 59.168 227.784 58.784 226.392 58.784C224.232 58.784 222.024 59.852 219.768 61.988V77H217.32V63.932C217.32 60.38 217.176 58.268 216.888 57.596C217.656 57.236 218.268 57.056 218.724 57.056C219.42 57.056 219.768 57.752 219.768 59.144V59.468C220.872 58.556 221.976 57.896 223.08 57.488C224.208 57.056 225.396 56.84 226.644 56.84C228.708 56.84 230.244 57.404 231.252 58.532C232.284 59.636 232.8 61.328 232.8 63.608V72.392ZM255.097 77C254.689 77 254.221 77.024 253.693 77.072C253.261 77.12 252.997 77.144 252.901 77.144C252.445 77.144 252.097 76.952 251.857 76.568L247.213 69.08C246.517 67.952 245.257 67.424 243.433 67.496L241.777 67.568V77H239.329V48.524H241.777V65.336L243.181 65.3C243.685 65.276 244.117 65.18 244.477 65.012C244.837 64.82 245.161 64.532 245.449 64.148L250.849 57.2H253.873L247.465 65.048C247.417 65.096 247.309 65.228 247.141 65.444C246.973 65.636 246.757 65.804 246.493 65.948C247.669 66.26 248.521 66.836 249.049 67.676L255.097 77ZM264.56 77.36C263.48 77.36 262.364 77.18 261.212 76.82C260.06 76.46 259.1 75.98 258.332 75.38C257.564 74.78 257.18 74.144 257.18 73.472C257.18 73.16 257.276 72.884 257.468 72.644C257.684 72.38 257.948 72.2 258.26 72.104C259.124 73.232 260.06 74.06 261.068 74.588C262.076 75.092 263.288 75.344 264.704 75.344C266.216 75.344 267.356 74.996 268.124 74.3C268.916 73.604 269.312 72.68 269.312 71.528C269.312 70.76 269.072 70.136 268.592 69.656C268.136 69.176 267.56 68.816 266.864 68.576C266.192 68.336 265.256 68.06 264.056 67.748C262.664 67.388 261.536 67.04 260.672 66.704C259.832 66.368 259.112 65.864 258.512 65.192C257.936 64.496 257.648 63.572 257.648 62.42C257.648 61.196 257.972 60.164 258.62 59.324C259.268 58.484 260.096 57.86 261.104 57.452C262.112 57.044 263.144 56.84 264.2 56.84C265.712 56.84 267.08 57.14 268.304 57.74C269.552 58.34 270.524 59.216 271.22 60.368C270.644 60.968 270.152 61.268 269.744 61.268C269.432 61.268 269.132 61.1 268.844 60.764C268.268 60.092 267.596 59.6 266.828 59.288C266.084 58.952 265.172 58.784 264.092 58.784C262.868 58.784 261.896 59.072 261.176 59.648C260.456 60.224 260.096 61.112 260.096 62.312C260.096 63.008 260.312 63.572 260.744 64.004C261.176 64.436 261.716 64.772 262.364 65.012C263.012 65.228 263.9 65.48 265.028 65.768C266.468 66.104 267.632 66.452 268.52 66.812C269.432 67.172 270.2 67.736 270.824 68.504C271.448 69.248 271.76 70.256 271.76 71.528C271.76 73.304 271.1 74.72 269.78 75.776C268.484 76.832 266.744 77.36 264.56 77.36ZM308.486 57.2C307.526 64.496 305.702 71.096 303.014 77H300.782C299.534 74.264 298.538 71.768 297.794 69.512C297.074 67.256 296.51 64.904 296.102 62.456C295.67 64.952 295.082 67.34 294.338 69.62C293.594 71.876 292.598 74.336 291.35 77H289.046C287.774 74.288 286.706 71.36 285.842 68.216C285.002 65.072 284.282 61.4 283.682 57.2H286.202C286.61 60.704 287.126 63.776 287.75 66.416C288.398 69.032 289.238 71.468 290.27 73.724C292.574 68.996 294.134 63.488 294.95 57.2H297.326C298.19 63.704 299.738 69.236 301.97 73.796C304.058 68.804 305.294 63.272 305.678 57.2H308.486ZM313.806 57.2H316.254V77H313.806V57.2ZM314.886 53.564C313.806 53.564 313.266 53.024 313.266 51.944V51.62C313.266 50.54 313.806 50 314.886 50H315.174C316.254 50 316.794 50.54 316.794 51.62V51.944C316.794 53.024 316.254 53.564 315.174 53.564H314.886ZM332.529 74.588C332.697 74.708 332.829 74.888 332.925 75.128C333.045 75.344 333.105 75.572 333.105 75.812C333.105 76.268 332.913 76.592 332.529 76.784C331.761 77.168 330.765 77.36 329.541 77.36C327.981 77.36 326.733 76.94 325.797 76.1C324.861 75.236 324.393 74.084 324.393 72.644V59.144H320.649V57.2H324.393V51.8H326.841V57.2H332.025V59.144H326.841V72.176C326.841 74.192 327.705 75.2 329.433 75.2C330.537 75.2 331.569 74.996 332.529 74.588ZM346.39 56.84C348.454 56.84 350.086 57.44 351.286 58.64C352.486 59.816 353.086 61.424 353.086 63.464V77H350.638V63.716C350.638 62.156 350.254 60.956 349.486 60.116C348.718 59.276 347.614 58.856 346.174 58.856C345.07 58.856 343.906 59.108 342.682 59.612C341.458 60.092 340.366 60.74 339.406 61.556V77H336.958V48.524H339.406V59.216C340.462 58.448 341.59 57.86 342.79 57.452C343.99 57.044 345.19 56.84 346.39 56.84ZM382.703 57.2L375.035 78.512C374.363 80.408 373.511 81.788 372.479 82.652C371.471 83.54 370.187 83.984 368.627 83.984C367.715 83.984 366.995 83.84 366.467 83.552C365.939 83.288 365.675 82.928 365.675 82.472C365.675 81.992 365.879 81.608 366.287 81.32C366.527 81.488 366.887 81.632 367.367 81.752C367.871 81.872 368.363 81.932 368.843 81.932C369.827 81.932 370.667 81.5 371.363 80.636C372.083 79.772 372.695 78.452 373.199 76.676L366.143 57.2H368.735L374.459 73.148L380.111 57.2H382.703ZM392.975 77.36C390.191 77.36 388.091 76.496 386.675 74.768C385.259 73.04 384.551 70.472 384.551 67.064C384.551 60.248 387.359 56.84 392.975 56.84C398.591 56.84 401.399 60.248 401.399 67.064C401.399 70.472 400.691 73.04 399.275 74.768C397.859 76.496 395.759 77.36 392.975 77.36ZM392.975 75.344C395.015 75.344 396.503 74.684 397.439 73.364C398.399 72.02 398.879 69.92 398.879 67.064C398.879 64.232 398.399 62.156 397.439 60.836C396.503 59.516 395.015 58.856 392.975 58.856C390.935 58.856 389.435 59.516 388.475 60.836C387.539 62.156 387.071 64.232 387.071 67.064C387.071 69.92 387.539 72.02 388.475 73.364C389.435 74.684 390.935 75.344 392.975 75.344ZM421.446 72.932C421.446 74.324 421.626 75.596 421.986 76.748C421.482 77.036 420.966 77.18 420.438 77.18C419.934 77.18 419.562 76.976 419.322 76.568C419.106 76.136 418.986 75.368 418.962 74.264C418.29 75.2 417.342 75.956 416.118 76.532C414.894 77.084 413.574 77.36 412.158 77.36C408.102 77.36 406.074 75.14 406.074 70.7V57.2H408.522V70.448C408.522 72.2 408.846 73.472 409.494 74.264C410.142 75.032 411.174 75.416 412.59 75.416C413.862 75.416 415.05 75.092 416.154 74.444C417.282 73.796 418.218 72.884 418.962 71.708V57.2H421.446V72.932ZM435.823 56.948C436.663 56.948 437.299 57.092 437.731 57.38C438.187 57.644 438.415 58.052 438.415 58.604C438.415 58.988 438.283 59.336 438.019 59.648C437.443 59.336 436.651 59.18 435.643 59.18C434.035 59.18 432.739 59.816 431.755 61.088C430.795 62.36 430.315 64.028 430.315 66.092V77H427.867V57.2H430.315V60.764C430.867 59.66 431.647 58.748 432.655 58.028C433.663 57.308 434.719 56.948 435.823 56.948ZM452.462 57.2H454.91V77H452.462V57.2ZM453.542 53.564C452.462 53.564 451.922 53.024 451.922 51.944V51.62C451.922 50.54 452.462 50 453.542 50H453.83C454.91 50 455.45 50.54 455.45 51.62V51.944C455.45 53.024 454.91 53.564 453.83 53.564H453.542ZM477.125 72.392C477.125 73.16 477.173 73.94 477.269 74.732C477.365 75.524 477.485 76.184 477.629 76.712C477.029 77 476.477 77.144 475.973 77.144C475.325 77.144 474.917 76.328 474.749 74.696C473.957 75.656 473.093 76.34 472.157 76.748C471.221 77.156 470.069 77.36 468.701 77.36C466.085 77.36 464.033 76.46 462.545 74.66C461.057 72.836 460.313 70.34 460.313 67.172C460.313 63.908 461.105 61.376 462.689 59.576C464.297 57.752 466.529 56.84 469.385 56.84C470.273 56.84 471.209 57.008 472.193 57.344C473.201 57.656 474.029 58.052 474.677 58.532V48.524H477.125V72.392ZM468.881 75.344C470.105 75.344 471.185 75.092 472.121 74.588C473.057 74.084 473.909 73.304 474.677 72.248V60.908C474.101 60.308 473.309 59.804 472.301 59.396C471.317 58.988 470.345 58.784 469.385 58.784C467.273 58.784 465.653 59.504 464.525 60.944C463.397 62.384 462.833 64.46 462.833 67.172C462.833 69.812 463.349 71.84 464.381 73.256C465.413 74.648 466.913 75.344 468.881 75.344ZM499.109 65.696C499.109 66.248 499.085 66.8 499.037 67.352H484.709C484.757 69.848 485.309 71.792 486.365 73.184C487.445 74.576 488.933 75.272 490.829 75.272C492.125 75.272 493.217 75.02 494.105 74.516C495.017 74.012 495.773 73.208 496.373 72.104C496.541 71.792 496.793 71.636 497.129 71.636C497.513 71.636 498.041 71.864 498.713 72.32C498.185 73.88 497.213 75.116 495.797 76.028C494.381 76.916 492.725 77.36 490.829 77.36C489.077 77.36 487.541 76.952 486.221 76.136C484.925 75.296 483.929 74.108 483.233 72.572C482.537 71.012 482.189 69.176 482.189 67.064C482.189 63.872 482.981 61.376 484.565 59.576C486.149 57.752 488.321 56.84 491.081 56.84C493.601 56.84 495.569 57.62 496.985 59.18C498.401 60.74 499.109 62.912 499.109 65.696ZM496.589 65.408C496.589 61.088 494.717 58.928 490.973 58.928C489.149 58.928 487.709 59.48 486.653 60.584C485.597 61.688 484.973 63.296 484.781 65.408H496.589ZM517.669 72.068C517.669 73.172 517.753 74.048 517.921 74.696C518.113 75.32 518.437 75.884 518.893 76.388C518.653 76.628 518.365 76.82 518.029 76.964C517.717 77.108 517.417 77.18 517.129 77.18C516.649 77.18 516.241 76.904 515.905 76.352C515.593 75.8 515.389 75.044 515.293 74.084C514.549 75.092 513.553 75.896 512.305 76.496C511.057 77.072 509.749 77.36 508.381 77.36C506.557 77.36 505.093 76.892 503.989 75.956C502.885 74.996 502.333 73.748 502.333 72.212C502.333 69.956 503.425 68.192 505.609 66.92C507.817 65.648 511.021 64.916 515.221 64.724V63.572C515.221 61.988 514.813 60.812 513.997 60.044C513.205 59.252 511.993 58.856 510.361 58.856C509.305 58.856 508.321 59.084 507.409 59.54C506.521 59.972 505.561 60.704 504.529 61.736C504.385 61.88 504.205 61.952 503.989 61.952C503.749 61.952 503.485 61.856 503.197 61.664C502.909 61.448 502.633 61.148 502.369 60.764C503.449 59.492 504.673 58.52 506.041 57.848C507.433 57.176 508.909 56.84 510.469 56.84C512.701 56.84 514.453 57.44 515.725 58.64C517.021 59.84 517.669 61.484 517.669 63.572V72.068ZM508.561 75.344C509.857 75.344 511.081 74.984 512.233 74.264C513.385 73.544 514.381 72.524 515.221 71.204V66.74C508.309 67.028 504.853 68.84 504.853 72.176C504.853 74.288 506.089 75.344 508.561 75.344ZM529.427 77.36C528.347 77.36 527.231 77.18 526.079 76.82C524.927 76.46 523.967 75.98 523.199 75.38C522.431 74.78 522.047 74.144 522.047 73.472C522.047 73.16 522.143 72.884 522.335 72.644C522.551 72.38 522.815 72.2 523.127 72.104C523.991 73.232 524.927 74.06 525.935 74.588C526.943 75.092 528.155 75.344 529.571 75.344C531.083 75.344 532.223 74.996 532.991 74.3C533.783 73.604 534.179 72.68 534.179 71.528C534.179 70.76 533.939 70.136 533.459 69.656C533.003 69.176 532.427 68.816 531.731 68.576C531.059 68.336 530.123 68.06 528.923 67.748C527.531 67.388 526.403 67.04 525.539 66.704C524.699 66.368 523.979 65.864 523.379 65.192C522.803 64.496 522.515 63.572 522.515 62.42C522.515 61.196 522.839 60.164 523.487 59.324C524.135 58.484 524.963 57.86 525.971 57.452C526.979 57.044 528.011 56.84 529.067 56.84C530.579 56.84 531.947 57.14 533.171 57.74C534.419 58.34 535.391 59.216 536.087 60.368C535.511 60.968 535.019 61.268 534.611 61.268C534.299 61.268 533.999 61.1 533.711 60.764C533.135 60.092 532.463 59.6 531.695 59.288C530.951 58.952 530.039 58.784 528.959 58.784C527.735 58.784 526.763 59.072 526.043 59.648C525.323 60.224 524.963 61.112 524.963 62.312C524.963 63.008 525.179 63.572 525.611 64.004C526.043 64.436 526.583 64.772 527.231 65.012C527.879 65.228 528.767 65.48 529.895 65.768C531.335 66.104 532.499 66.452 533.387 66.812C534.299 67.172 535.067 67.736 535.691 68.504C536.315 69.248 536.627 70.256 536.627 71.528C536.627 73.304 535.967 74.72 534.647 75.776C533.351 76.832 531.611 77.36 529.427 77.36ZM540.96 51.8H544.056L543.516 69.584H541.5L540.96 51.8ZM542.364 77C541.284 77 540.744 76.46 540.744 75.38V75.056C540.744 73.976 541.284 73.436 542.364 73.436H542.652C543.732 73.436 544.272 73.976 544.272 75.056V75.38C544.272 76.46 543.732 77 542.652 77H542.364ZM549.819 51.8H552.915L552.375 69.584H550.359L549.819 51.8ZM551.223 77C550.143 77 549.603 76.46 549.603 75.38V75.056C549.603 73.976 550.143 73.436 551.223 73.436H551.511C552.591 73.436 553.131 73.976 553.131 75.056V75.38C553.131 76.46 552.591 77 551.511 77H551.223Z" fill="black"/>
</svg>
