<?xml version="1.0" standalone="no"?>
<!DOCTYPE svg PUBLIC "-//W3C//DTD SVG 20010904//EN"
 "http://www.w3.org/TR/2001/REC-SVG-20010904/DTD/svg10.dtd">
<svg version="1.0" xmlns="http://www.w3.org/2000/svg"
 width="485.000000pt" height="279.000000pt" viewBox="0 0 485.000000 279.000000"
 preserveAspectRatio="xMidYMid meet">

<g transform="translate(0.000000,279.000000) scale(0.100000,-0.100000)"
fill="#000000" stroke="none">
<path d="M80 1410 l0 -1320 2340 0 2340 0 0 1320 0 1320 -2340 0 -2340 0 0
-1320z m4478 747 c18 -14 14 -65 -7 -86 -17 -17 -24 -18 -45 -8 l-25 12 21 33
c11 18 18 41 15 52 -4 14 -1 17 12 13 9 -3 22 -10 29 -16z m-490 -179 c23 -23
125 -39 166 -25 20 7 26 15 26 39 0 16 3 28 8 26 4 -3 22 -11 40 -19 37 -16
37 -14 2 -114 -21 -60 -49 -95 -77 -95 -8 0 -11 5 -8 10 3 6 3 16 -2 23 -5 8
-9 3 -13 -16 l-5 -27 -82 70 c-45 38 -87 79 -93 90 -7 12 -8 40 -3 72 7 52 7
52 14 19 4 -18 16 -42 27 -53z m197 -198 c-3 -5 -12 -10 -18 -10 -7 0 -6 4 3
10 19 12 23 12 15 0z m-2121 -25 c-9 -38 13 -63 124 -140 56 -39 100 -74 98
-80 -1 -5 -29 -11 -61 -13 l-58 -3 7 -42 c3 -23 8 -53 12 -67 9 -39 -82 117
-116 197 -31 75 -37 121 -20 154 15 27 22 24 14 -6z m653 -371 c-3 -3 -12 -4
-19 -1 -8 3 -5 6 6 6 11 1 17 -2 13 -5z m-190 -86 c-3 -7 -5 -2 -5 12 0 14 2
19 5 13 2 -7 2 -19 0 -25z m61 -53 c7 -25 12 -61 12 -81 0 -24 4 -33 12 -28 8
5 10 -23 4 -112 l-6 -119 -41 -41 -40 -41 -40 40 c-22 22 -38 46 -35 52 2 6
-5 56 -15 109 -20 101 -17 126 18 126 8 0 13 8 12 18 -4 23 28 82 45 82 7 0
21 9 31 20 10 11 21 20 24 20 4 0 12 -20 19 -45z m366 -30 c4 -11 -10 -26 -47
-49 -63 -40 -97 -58 -97 -52 0 25 28 61 67 86 54 34 68 36 77 15z m-716 -126
c16 -6 22 -17 22 -39 l0 -30 -54 27 c-48 23 -53 29 -45 45 10 19 18 19 77 -3z
m2312 -44 l0 -24 -117 0 c-111 1 -267 13 -305 25 -10 3 -18 10 -18 15 0 5 91
9 220 9 l220 0 0 -25z m-360 -149 c10 -13 7 -15 -17 -13 -33 2 -40 -26 -8 -31
16 -3 17 -1 5 7 -12 9 -11 11 8 11 15 0 22 -6 22 -20 0 -20 -22 -26 -54 -14
-19 7 -22 60 -3 67 22 9 34 7 47 -7z m27 -48 c-2 -13 -4 -3 -4 22 0 25 2 35 4
23 2 -13 2 -33 0 -45z m116 39 c26 -10 18 -51 -10 -55 -21 -3 -23 1 -23 40 0
24 4 38 8 32 4 -6 15 -13 25 -17z m107 -17 c0 -22 -4 -40 -10 -40 -5 0 -10 18
-10 40 0 22 5 40 10 40 6 0 10 -18 10 -40z m-166 14 c21 -8 21 -43 0 -51 -8
-3 -23 1 -31 10 -13 13 -14 19 -3 31 14 18 13 18 34 10z m134 -27 c3 -25 0
-28 -20 -25 -21 3 -32 28 -20 51 9 19 37 0 40 -26z m-1898 -76 c0 -41 -11 -45
-32 -10 -15 24 -17 34 -7 40 21 12 39 -2 39 -30z m1721 2 c-9 -16 -10 -14 -11
12 0 21 3 26 11 18 8 -8 8 -16 0 -30z m25 -11 c-11 -10 -15 4 -8 28 l7 25 3
-23 c2 -13 1 -26 -2 -30z m45 41 c-11 -5 -11 -7 0 -14 12 -7 11 -9 -1 -9 -13
0 -13 -1 0 -10 13 -8 12 -10 -2 -10 -13 0 -18 8 -18 25 0 17 5 25 18 24 12 0
13 -2 3 -6z m49 -4 c0 11 3 11 15 1 12 -10 15 -10 15 0 0 8 3 11 6 7 3 -3 3
-15 -1 -26 -9 -30 -49 -22 -53 10 -2 19 -1 21 7 9 9 -12 11 -12 11 -1z m87
-17 c2 -16 -2 -22 -17 -22 -19 0 -20 6 -11 48 3 13 25 -8 28 -26z m-1843 -9
c-4 -16 -11 -37 -17 -48 -10 -19 -11 -18 -24 14 -18 42 -11 61 22 61 23 0 25
-3 19 -27z m1417 -230 c13 -15 11 -16 -14 -9 -20 5 -29 2 -33 -9 -7 -18 -24
-20 -24 -2 0 35 48 49 71 20z m39 -8 c0 -14 -4 -25 -10 -25 -5 0 -10 11 -10
25 0 14 5 25 10 25 6 0 10 -11 10 -25z m110 11 c0 -8 7 -13 16 -12 9 0 19 -4
21 -10 2 -6 -9 -11 -27 -11 -25 0 -30 4 -30 24 0 13 5 23 10 23 6 0 10 -6 10
-14z m150 -11 c0 -14 -4 -25 -10 -25 -5 0 -10 11 -10 25 0 14 5 25 10 25 6 0
10 -11 10 -25z m-192 -8 c9 -10 4 -13 -24 -14 -29 -1 -33 1 -23 13 14 18 33
18 47 1z m149 -3 c2 -7 -6 -11 -22 -10 -25 1 -31 7 -18 20 10 10 36 3 40 -10z
m-254 -11 c-7 -2 -19 -2 -25 0 -7 3 -2 5 12 5 14 0 19 -2 13 -5z m537 -18 c0
-8 -4 -15 -10 -15 -5 0 -10 7 -10 15 0 8 5 15 10 15 6 0 10 -7 10 -15z m-542
-22 c-10 -2 -26 -2 -35 0 -10 3 -2 5 17 5 19 0 27 -2 18 -5z m105 0 c-7 -2
-19 -2 -25 0 -7 3 -2 5 12 5 14 0 19 -2 13 -5z m70 0 c-7 -2 -21 -2 -30 0 -10
3 -4 5 12 5 17 0 24 -2 18 -5z m80 0 c-7 -2 -21 -2 -30 0 -10 3 -4 5 12 5 17
0 24 -2 18 -5z m-180 -31 c3 7 6 0 6 -16 1 -23 -2 -26 -13 -17 -11 9 -15 9
-19 -1 -3 -7 -6 0 -6 16 -1 23 2 26 13 17 11 -9 15 -9 19 1z m63 1 c-11 -3
-14 -8 -9 -12 7 -4 6 -11 -3 -19 -12 -11 -14 -9 -14 13 0 20 5 25 23 24 19 -1
19 -2 3 -6z m53 -36 c1 -5 -3 -5 -9 -2 -5 3 -10 16 -9 28 0 21 1 21 9 2 5 -11
9 -24 9 -28z m21 28 c0 -8 -4 -15 -10 -15 -5 0 -10 7 -10 15 0 8 5 15 10 15 6
0 10 -7 10 -15z m23 -5 c-3 -11 -10 -23 -16 -27 -7 -4 -8 0 -4 11 4 10 7 22 7
27 0 5 4 9 9 9 5 0 7 -9 4 -20z m49 11 c-11 -7 -11 -9 2 -14 18 -7 22 -27 5
-27 -5 0 -8 4 -5 9 3 5 -4 11 -15 14 -24 6 -17 27 9 27 13 0 14 -2 4 -9z
m-1712 -51 c0 -5 9 -10 21 -10 11 0 34 -13 50 -29 22 -23 29 -39 29 -70 0 -57
-32 -91 -92 -98 -42 -5 -50 -3 -78 25 -29 29 -41 72 -20 72 6 0 10 -7 10 -15
0 -9 11 -27 25 -40 50 -51 135 -17 135 54 0 46 -37 87 -71 78 -12 -3 -31 -1
-42 5 -20 10 -20 11 -2 24 22 16 35 18 35 4z m-1297 -34 c30 -28 42 -65 33
-102 -7 -25 -51 -74 -67 -74 -17 0 -8 23 16 42 19 15 25 29 25 58 0 29 -6 43
-25 58 -24 19 -33 42 -16 42 4 0 20 -11 34 -24z m-895 -31 c34 -21 62 -41 62
-45 0 -6 -86 -62 -132 -87 -5 -2 -8 37 -8 87 0 50 3 89 8 87 4 -2 35 -21 70
-42z m832 -47 l0 -92 -33 32 c-18 18 -41 32 -50 32 -12 0 -17 8 -17 30 0 22 5
30 18 30 10 0 31 14 47 30 16 17 30 30 32 30 2 0 3 -41 3 -92z m2760 77 c0 -9
9 -15 24 -15 28 0 42 -26 25 -46 -9 -11 -9 -17 0 -28 17 -20 3 -46 -25 -46
-15 0 -24 -6 -24 -15 0 -9 -9 -15 -25 -15 -16 0 -25 6 -25 15 0 9 -9 15 -24
15 -28 0 -42 26 -25 46 9 11 9 17 0 28 -17 20 -3 46 25 46 15 0 24 6 24 15 0
9 9 15 25 15 16 0 25 -6 25 -15z m350 6 c0 -5 -10 -11 -22 -13 -15 -2 -24 -11
-26 -25 -5 -36 -22 -27 -22 12 0 33 2 35 35 35 19 0 35 -4 35 -9z m110 -26 c0
-39 -17 -48 -22 -12 -2 14 -11 23 -25 25 -36 5 -27 22 12 22 33 0 35 -2 35
-35z m-785 -55 l0 -75 -95 0 -95 0 -3 64 c-4 94 -7 92 100 89 l93 -3 0 -75z
m-2110 20 c0 -41 -2 -45 -24 -45 -13 0 -27 7 -29 15 -5 13 -3 13 12 1 13 -11
19 -12 29 -2 9 10 8 15 -6 25 -15 12 -16 14 -2 20 26 10 17 29 -11 22 -17 -5
-23 -3 -19 4 4 6 17 10 28 8 19 -3 22 -10 22 -48z m83 27 c2 -11 -6 -29 -18
-42 l-22 -23 28 -5 c24 -3 23 -4 -9 -6 -34 -1 -37 1 -28 17 5 10 17 24 25 32
9 7 16 19 16 26 0 17 -22 18 -38 2 -7 -7 -12 -8 -12 -2 0 30 53 30 58 1z m119
7 c3 -8 -4 -25 -16 -38 -27 -28 -26 -34 2 -39 16 -3 13 -5 -10 -6 -38 -1 -41
8 -13 34 11 10 20 26 20 37 0 20 -26 25 -33 6 -3 -8 -6 -6 -6 5 -1 22 47 24
56 1z m77 0 c15 -38 -6 -85 -37 -84 -7 0 -4 7 6 14 17 14 23 27 10 25 -23 -4
-33 3 -33 24 0 13 3 27 7 30 12 13 41 7 47 -9z m85 -36 c-22 -57 -36 -79 -24
-38 12 41 34 90 39 90 3 0 -4 -24 -15 -52z m126 2 c0 -41 -2 -45 -24 -45 -13
0 -27 7 -29 15 -5 13 -3 13 12 1 13 -11 19 -12 29 -2 9 10 8 14 -6 23 -17 9
-17 11 -1 22 20 15 3 32 -22 22 -9 -3 -12 -2 -9 5 4 5 17 9 28 7 19 -3 22 -10
22 -48z m81 35 c3 -8 -4 -28 -15 -44 l-21 -30 27 -4 c23 -3 21 -4 -9 -6 -45
-1 -46 4 -12 40 26 27 25 49 -2 49 -8 0 -14 -5 -14 -12 0 -6 -3 -9 -6 -5 -10
10 6 27 27 27 11 0 22 -7 25 -15z m113 -12 c-1 -16 0 -34 2 -41 2 -8 -4 -19
-13 -25 -14 -9 -20 -8 -30 3 -7 8 -9 12 -4 8 16 -13 36 -9 36 7 0 7 -8 19 -17
24 -17 10 -17 10 0 11 9 0 17 7 17 16 0 11 -6 15 -20 11 -11 -3 -20 -1 -20 4
0 5 11 9 25 9 21 0 25 -4 24 -27z m91 23 c0 -12 -43 -97 -47 -93 -2 3 5 23 16
45 l21 41 -33 4 c-31 4 -31 4 6 5 20 1 37 0 37 -2z m-1470 -76 c0 -5 -20 -23
-45 -40 l-45 -31 0 71 0 71 45 -31 c25 -17 45 -35 45 -40z m50 0 c0 -56 -3
-70 -15 -70 -12 0 -15 14 -15 70 0 56 3 70 15 70 12 0 15 -14 15 -70z m365 30
c7 -23 -2 -60 -16 -60 -5 0 -9 18 -9 40 0 42 14 54 25 20z m1283 -22 c-1 -38
-2 -39 -5 -10 -3 22 -8 30 -16 25 -7 -4 -6 0 2 10 19 24 21 22 19 -25z m70 30
c7 -7 12 -19 11 -27 0 -10 -4 -7 -9 7 -13 32 -30 27 -30 -9 0 -24 4 -30 15
-25 8 3 15 1 15 -4 0 -18 -38 -10 -42 8 -6 21 8 62 20 62 4 0 13 -5 20 -12z
m1664 -70 c2 -15 11 -24 26 -26 35 -5 26 -22 -13 -22 -33 0 -35 2 -35 35 0 39
17 48 22 13z m158 -13 c0 -33 -2 -35 -35 -35 -39 0 -48 17 -12 22 14 2 23 11
25 26 5 35 22 26 22 -13z"/>
<path d="M4237 1929 c-20 -12 -69 -103 -60 -112 3 -4 14 5 25 18 10 13 25 22
32 19 21 -8 42 24 29 46 -9 13 -9 20 0 29 14 14 -2 14 -26 0z"/>
<path d="M4395 870 c-4 -6 -3 -16 3 -22 13 -13 23 4 13 21 -7 10 -10 10 -16 1z"/>
<path d="M4330 860 c0 -5 5 -10 10 -10 6 0 10 5 10 10 0 6 -4 10 -10 10 -5 0
-10 -4 -10 -10z"/>
<path d="M4014 306 c-9 -24 4 -48 23 -44 12 2 18 12 18 28 0 29 -32 41 -41 16z"/>
<path d="M3574 305 c-10 -25 4 -45 31 -45 14 0 25 5 25 11 0 6 -9 8 -20 4 -16
-5 -20 -2 -20 15 0 17 4 20 20 15 11 -4 20 -2 20 4 0 17 -50 13 -56 -4z"/>
<path d="M3650 290 c0 -25 4 -30 24 -30 14 0 28 5 32 11 4 8 0 9 -15 4 -17 -5
-21 -2 -21 15 0 17 4 20 21 15 15 -5 19 -4 15 4 -4 6 -18 11 -32 11 -20 0 -24
-5 -24 -30z"/>
<path d="M1860 330 c0 -11 6 -20 13 -20 19 0 27 10 20 26 -8 21 -33 17 -33 -6z"/>
</g>
</svg>
